<svg id="Capa_1" data-name="Capa 1" xmlns="http://www.w3.org/2000/svg" viewBox="0 0 429.62 276.03"><defs><style>.cls-1{fill:#00234d;}.cls-2{fill:#f1162f;}</style></defs><title>AMVARA_Logo_2020_F</title><polygon class="cls-1" points="52.05 275.28 29.45 214.32 29.36 214.32 22.7 214.32 22.61 214.32 0 275.28 6.86 275.28 26.03 223.34 45.2 275.28 52.05 275.28"/><polygon class="cls-1" points="427.21 275.35 404.6 214.38 404.52 214.38 397.85 214.38 397.76 214.38 375.16 275.35 382.01 275.35 401.19 223.41 420.35 275.35 427.21 275.35"/><polygon class="cls-1" points="285.41 275.28 262.8 214.32 262.71 214.32 256.05 214.32 255.96 214.32 233.35 275.28 240.21 275.28 259.38 223.34 278.55 275.28 285.41 275.28"/><path class="cls-1" d="M105.16,275.18l-19.71-54h-.32q.56,6.42.56,15.25v38.76H79.45V214.24H89.63L108,264.51h.32l18.56-50.27H137v60.93h-6.75V235.92q0-6.75.56-14.67h-.32l-19.87,53.93Z"/><path class="cls-1" d="M206.15,214.24h7.27l-20.94,60.93h-6.68L165,214.24h7.15l13.35,39.43a114.92,114.92,0,0,1,3.66,13.21,114.5,114.5,0,0,1,3.74-13.46Z"/><path class="cls-1" d="M319.76,249.84v25.34H313V214.24h15.93q10.69,0,15.79,4.29t5.11,12.92q0,12.09-11.68,16.34l15.77,27.38h-8l-14.07-25.34Zm0-6.08H329q7.15,0,10.49-3t3.34-8.94q0-6-3.4-8.71t-10.91-2.67h-8.78Z"/><path class="cls-2" d="M217,.68h-6.79l-44.86,121h6.8l19-51.48,19,51.48h6.93l19-51.48,19,51.48h6.79Zm-3.4,112L194.53,61.23h0l19.07-51.6,19.08,51.59Z"/></svg>