<?xml version="1.0" standalone="no"?><!DOCTYPE svg PUBLIC "-//W3C//DTD SVG 1.1//EN" "http://www.w3.org/Graphics/SVG/1.1/DTD/svg11.dtd"><svg xmlns="http://www.w3.org/2000/svg" version="1.1" width="686.583" height="587.333" xmlns:xlink="http://www.w3.org/1999/xlink" xlink="http://www.w3.org/1999/xlink" style="position:relative;overflow:hidden;" viewBox="199.125 67.5 686.583 587.333"><defs/><g><g width="149.667" height="75.333" transform="scale(1,1) translate(380.667,80)"><g stroke="#9CB9D3" stroke-opacity="1" stroke-width="1" stroke-dasharray="none" width="149.667" height="75.333" transform="scale(1,1) translate(0,0)" fill="#D99694" fill-opacity="1"><rect width="149.667" height="75.333"/></g><g width="128.66666666666666" height="54.33333333333333" transform="scale(1,1) translate(10.5,10.5)"><text width="128.66666666666666" height="15.624999046325684" transform="scale(1,1) translate(0,19.354167143503823)" xml:space="preserve"><tspan xml:space="preserve" text-rendering="optimizeSpeed" font-size="13.88888888888889" font-weight="normal" font-style="normal" text-decoration="none" fill="#333333" opacity="1" x="29.221" text-anchor="start" y="12.5" textLength="70.22407531738281" style="font-family: Arial, Helvetica Neue, Helvetica, sans-serif;">Companies</tspan></text></g></g><g width="338.083" height="56.5" transform="scale(1,1) translate(286.458,155.333)"><g fill="#A5A5A5" stroke="#A5A5A5" stroke-opacity="1" transform="scale(1,1) translate(0,0)"><path fill="none" stroke-width="1" stroke-dasharray="none" d="M0,36 L338.083,36 M169.042,36 L169.042,0 M169.042,36 L169.042,36 M0,36 L0,56.5 M338.083,36 L338.083,56.5"/><g><g stroke-dasharray="none"><path d="M335.083,33L341.083,33L341.083,39L335.083,39z" stroke-width="0" fill="none"/></g></g></g></g><g width="20.5" height="74" transform="scale(1,1) translate(587.125,287.167)"><g fill="#545454" stroke="#545454" stroke-opacity="1" transform="scale(1,1) translate(0,0)"><path fill="none" stroke-width="1" stroke-dasharray="none" d="M0,74 L0,74 M0,74 L0,0 M0,74 L0,74 M0,74 L20.5,74"/><g><g stroke-dasharray="none"><path d="M-5,69L5,69L5,79L-5,79z" stroke-width="0" fill="none"/></g></g></g></g><g width="149.667" height="75.333" transform="scale(1,1) translate(549.708,211.833)"><g stroke="#9CB9D3" stroke-opacity="1" stroke-width="1" stroke-dasharray="none" width="149.667" height="75.333" transform="scale(1,1) translate(0,0)" fill="#E5B9B7" fill-opacity="1"><rect width="149.667" height="75.333"/></g><g width="128.66666666666666" height="54.33333333333333" transform="scale(1,1) translate(10.5,10.5)"><text width="128.66666666666666" height="15.624999046325684" transform="scale(1,1) translate(0,19.354167143503823)" xml:space="preserve"><tspan xml:space="preserve" text-rendering="optimizeSpeed" font-size="13.88888888888889" font-weight="normal" font-style="normal" text-decoration="none" fill="#333333" opacity="1" x="36.546" text-anchor="start" y="12.5" textLength="55.574588775634766" style="font-family: Arial, Helvetica Neue, Helvetica, sans-serif;">Region 2</tspan></text></g></g><g width="20.5" height="74" transform="scale(1,1) translate(249.042,287.167)"><g fill="#545454" stroke="#545454" stroke-opacity="1" transform="scale(1,1) translate(0,0)"><path fill="none" stroke-width="1" stroke-dasharray="none" d="M0,74 L0,74 M0,74 L0,0 M0,74 L0,74 M0,74 L20.5,74"/><g><g stroke-dasharray="none"><path d="M-5,69L5,69L5,79L-5,79z" stroke-width="0" fill="none"/></g></g></g></g><g width="149.667" height="75.333" transform="scale(1,1) translate(211.625,211.833)"><g stroke="#9CB9D3" stroke-opacity="1" stroke-width="1" stroke-dasharray="none" width="149.667" height="75.333" transform="scale(1,1) translate(0,0)" fill="#E5B9B7" fill-opacity="1"><rect width="149.667" height="75.333"/></g><g width="128.66666666666666" height="54.33333333333333" transform="scale(1,1) translate(10.5,10.5)"><text width="128.66666666666666" height="15.624999046325684" transform="scale(1,1) translate(0,19.354167143503823)" xml:space="preserve"><tspan xml:space="preserve" text-rendering="optimizeSpeed" font-size="13.88888888888889" font-weight="normal" font-style="normal" text-decoration="none" fill="#333333" opacity="1" x="36.546" text-anchor="start" y="12.5" textLength="55.574588775634766" style="font-family: Arial, Helvetica Neue, Helvetica, sans-serif;">Region 1</tspan></text></g></g><g width="20.5" height="74.167" transform="scale(1,1) translate(364.958,510.5)"><g fill="#545454" stroke="#545454" stroke-opacity="1" transform="scale(1,1) translate(0,0)"><path fill="none" stroke-width="1" stroke-dasharray="none" d="M0,74.167 L0,74.167 M0,74.167 L0,0 M0,74.167 L0,74.167 M0,74.167 L20.5,74.167"/><g><g stroke-dasharray="none"><path d="M-5,69.167L5,69.167L5,79.167L-5,79.167z" stroke-width="0" fill="none"/></g></g></g></g><g width="149.667" height="75.333" transform="scale(1,1) translate(327.542,435.167)"><g stroke="#9CB9D3" stroke-opacity="1" stroke-width="1" stroke-dasharray="none" width="149.667" height="75.333" transform="scale(1,1) translate(0,0)" fill="#FADA7A" fill-opacity="1"><rect width="149.667" height="75.333"/></g><g width="128.66666666666666" height="54.33333333333333" transform="scale(1,1) translate(10.5,10.5)"><text width="128.66666666666666" height="15.624999046325684" transform="scale(1,1) translate(0,19.354167143503823)" xml:space="preserve"><tspan xml:space="preserve" text-rendering="optimizeSpeed" font-size="13.88888888888889" font-weight="normal" font-style="normal" text-decoration="none" fill="#333333" opacity="1" x="46.976" text-anchor="start" y="12.5" textLength="34.715476989746094" style="font-family: Arial, Helvetica Neue, Helvetica, sans-serif;">Cities</tspan></text></g></g><g width="20.5" height="74.167" transform="scale(1,1) translate(703.042,510.5)"><g fill="#545454" stroke="#545454" stroke-opacity="1" transform="scale(1,1) translate(0,0)"><path fill="none" stroke-width="1" stroke-dasharray="none" d="M0,74.167 L0,74.167 M0,74.167 L0,0 M0,74.167 L0,74.167 M0,74.167 L20.5,74.167"/><g><g stroke-dasharray="none"><path d="M-5,69.167L5,69.167L5,79.167L-5,79.167z" stroke-width="0" fill="none"/></g></g></g></g><g width="149.667" height="75.333" transform="scale(1,1) translate(665.625,435.167)"><g stroke="#9CB9D3" stroke-opacity="1" stroke-width="1" stroke-dasharray="none" width="149.667" height="75.333" transform="scale(1,1) translate(0,0)" fill="#FADA7A" fill-opacity="1"><rect width="149.667" height="75.333"/></g><g width="128.66666666666666" height="54.33333333333333" transform="scale(1,1) translate(10.5,10.5)"><text width="128.66666666666666" height="15.624999046325684" transform="scale(1,1) translate(0,19.354167143503823)" xml:space="preserve"><tspan xml:space="preserve" text-rendering="optimizeSpeed" font-size="13.88888888888889" font-weight="normal" font-style="normal" text-decoration="none" fill="#333333" opacity="1" x="46.976" text-anchor="start" y="12.5" textLength="34.715476989746094" style="font-family: Arial, Helvetica Neue, Helvetica, sans-serif;">Cities</tspan></text></g></g><g width="20.5" height="74.167" transform="scale(1,1) translate(307.042,398.667)"><g fill="#545454" stroke="#545454" stroke-opacity="1" transform="scale(1,1) translate(0,0)"><path fill="none" stroke-width="1" stroke-dasharray="none" d="M0,74.167 L0,74.167 M0,74.167 L0,0 M0,74.167 L0,74.167 M0,74.167 L20.5,74.167"/><g><g stroke-dasharray="none"><path d="M-5,69.167L5,69.167L5,79.167L-5,79.167z" stroke-width="0" fill="none"/></g></g></g></g><g width="150" height="75" transform="scale(1,1) translate(269.542,323.667)"><g stroke="#9CB9D3" stroke-opacity="1" stroke-width="1" stroke-dasharray="none" width="150" height="75" transform="scale(1,1) translate(0,0)" fill="#FAC090" fill-opacity="1"><rect width="150" height="75"/></g><g width="129" height="54" transform="scale(1,1) translate(10.5,10.5)"><text width="129" height="15.624999046325684" transform="scale(1,1) translate(0,19.187500476837158)" xml:space="preserve"><tspan xml:space="preserve" text-rendering="optimizeSpeed" font-size="13.88888888888889" font-weight="normal" font-style="normal" text-decoration="none" fill="#333333" opacity="1" x="29.381" text-anchor="start" y="12.5" textLength="70.23763275146484" style="font-family: Arial, Helvetica Neue, Helvetica, sans-serif;">Subregions</tspan></text></g></g><g width="20.5" height="74.167" transform="scale(1,1) translate(645.125,398.667)"><g fill="#545454" stroke="#545454" stroke-opacity="1" transform="scale(1,1) translate(0,0)"><path fill="none" stroke-width="1" stroke-dasharray="none" d="M0,74.167 L0,74.167 M0,74.167 L0,0 M0,74.167 L0,74.167 M0,74.167 L20.5,74.167"/><g><g stroke-dasharray="none"><path d="M-5,69.167L5,69.167L5,79.167L-5,79.167z" stroke-width="0" fill="none"/></g></g></g></g><g width="150" height="75" transform="scale(1,1) translate(607.625,323.667)"><g stroke="#9CB9D3" stroke-opacity="1" stroke-width="1" stroke-dasharray="none" width="150" height="75" transform="scale(1,1) translate(0,0)" fill="#FAC090" fill-opacity="1"><rect width="150" height="75"/></g><g width="129" height="54" transform="scale(1,1) translate(10.5,10.5)"><text width="129" height="15.624999046325684" transform="scale(1,1) translate(0,19.187500476837158)" xml:space="preserve"><tspan xml:space="preserve" text-rendering="optimizeSpeed" font-size="13.88888888888889" font-weight="normal" font-style="normal" text-decoration="none" fill="#333333" opacity="1" x="29.381" text-anchor="start" y="12.5" textLength="70.23763275146484" style="font-family: Arial, Helvetica Neue, Helvetica, sans-serif;">Subregions</tspan></text></g></g><g width="0" height="20" transform="scale(1,1) translate(422.875,622.333)"><g fill="#545454" stroke="#545454" stroke-opacity="1" transform="scale(1,1) translate(0,0)"><path fill="none" stroke-width="1" stroke-dasharray="none" d="M0,0"/></g></g><g width="149.667" height="75.333" transform="scale(1,1) translate(385.458,547)"><g stroke="#9CB9D3" stroke-opacity="1" stroke-width="1" stroke-dasharray="none" width="149.667" height="75.333" transform="scale(1,1) translate(0,0)" fill="#FDF0C9" fill-opacity="1"><rect width="149.667" height="75.333"/></g><g width="128.66666666666666" height="54.33333333333333" transform="scale(1,1) translate(10.5,10.5)"><text width="128.66666666666666" height="15.624999046325684" transform="scale(1,1) translate(0,19.354167143503823)" xml:space="preserve"><tspan xml:space="preserve" text-rendering="optimizeSpeed" font-size="13.88888888888889" font-weight="normal" font-style="normal" text-decoration="none" fill="#333333" opacity="1" x="29.221" text-anchor="start" y="12.5" textLength="70.22407531738281" style="font-family: Arial, Helvetica Neue, Helvetica, sans-serif;">Companies</tspan></text></g></g><g width="0" height="20" transform="scale(1,1) translate(760.958,622.333)"><g fill="#545454" stroke="#545454" stroke-opacity="1" transform="scale(1,1) translate(0,0)"><path fill="none" stroke-width="1" stroke-dasharray="none" d="M0,0"/></g></g><g width="149.667" height="75.333" transform="scale(1,1) translate(723.542,547)"><g stroke="#9CB9D3" stroke-opacity="1" stroke-width="1" stroke-dasharray="none" width="149.667" height="75.333" transform="scale(1,1) translate(0,0)" fill="#FDF0C9" fill-opacity="1"><rect width="149.667" height="75.333"/></g><g width="128.66666666666666" height="54.33333333333333" transform="scale(1,1) translate(10.5,10.5)"><text width="128.66666666666666" height="15.624999046325684" transform="scale(1,1) translate(0,19.354167143503823)" xml:space="preserve"><tspan xml:space="preserve" text-rendering="optimizeSpeed" font-size="13.88888888888889" font-weight="normal" font-style="normal" text-decoration="none" fill="#333333" opacity="1" x="29.221" text-anchor="start" y="12.5" textLength="70.22407531738281" style="font-family: Arial, Helvetica Neue, Helvetica, sans-serif;">Companies</tspan></text></g></g></g></svg>