<?xml version="1.0" standalone="yes"?>
<svg xmlns="http://www.w3.org/2000/svg" width="1030" height="1512">
<path style="fill:#f8af3b; stroke:none;" d="M770 134C776.21 129.626 781.757 123.651 786.829 118C788.654 115.967 791.881 112.983 791.808 110C791.739 107.198 788.847 104.851 786.995 103.089C782.521 98.8325 777.681 94.8981 773 90.8696C752.551 73.271 729.71 58.132 706 45.3087C623.717 0.807617 527.934 -9.67651 437 8.8009C324.99 31.5609 227.282 110.207 175.258 211C141.657 276.101 127.56 352.283 134.831 425C141.753 494.232 165.514 561.942 207.374 618C216.936 630.806 226.752 643.613 238.004 655C240.96 657.992 246.385 665.793 251 665.793C253.422 665.793 255.398 663.502 257 661.98C261.391 657.809 265.9 653.515 269.937 649C271.773 646.947 273.595 644.83 272.248 642C270.78 638.914 267.372 636.377 265 634C260.514 629.505 256.346 624.769 252.155 620C240.901 607.193 230.914 593.324 221.692 579C189.806 529.47 169.566 469.978 166.961 411C166.406 398.441 164.97 385.61 166.17 373C168.152 352.168 169.955 331.491 174.651 311C188.63 250.002 218.369 192.861 261.09 147C289.151 116.875 322.381 91.1594 359 72.2585C462.668 18.7499 588.513 20.1306 691 75.6913C719.786 91.2971 746.813 110.829 770 134z"/>
</svg>