<?xml version="1.0" standalone="yes"?>
<svg xmlns="http://www.w3.org/2000/svg" width="1030" height="1512">
<path style="fill:#229ba8; stroke:none;" d="M412 115C396.03 122.558 379.979 129.566 365 139.053C321.923 166.336 286.574 204.139 262.309 249C200.623 363.043 222.954 512.033 317 601.961C340.289 624.23 367.685 643.233 397 656.691C450.988 681.478 511.323 689.784 570 680.725C591.525 677.402 611.172 669.685 632 664C630.583 655.771 626.294 647.736 623.2 640C618.257 627.643 613.712 615.024 608 603C580.235 612.05 552.515 619.971 523 619.971C446.441 619.971 371.921 578.791 330.079 515C283.196 443.525 280.806 352.712 321.309 278C332.055 258.178 346.116 240.883 362 225C376.612 210.389 393.071 198.38 411 188.15C419.213 183.464 427.868 178.61 437 176C432.648 163.137 427.043 150.608 422 138C418.97 130.425 416.563 121.791 412 115z"/>
</svg>
